name rise34.3697peak60.0498fall86.3158.mot
datacolumns 19
datarows 18
range 5.66831300000000 5.69664100000000
endheader
time	ground_force1_vx	ground_force1_vy	ground_force1_vz	ground_force1_px	ground_force1_py	ground_force1_pz	ground_force2_vx	ground_force2_vy	ground_force2_vz	ground_force2_px	ground_force2_py	ground_force2_pz	ground_torque1_x	ground_torque1_y	ground_torque1_z	ground_torque2_x	ground_torque2_y	ground_torque2_z	
5.66831300000000	65.10898700000000	779.96826599999997	46.40742800000000	0.45200700000000	0.00000000000000	0.08398600000000	0.00000000000000	0.00000000000000	0.00000000000000	0.00000000000000	0.00000000000000	0.00000000000000	0.00000000000000	28.89058500000000	0.00000000000000	0.00000000000000	0.00000000000000	0.00000000000000	
5.66997700000000	64.37363000000001	782.51985400000001	46.70754400000000	0.45096000000000	0.00000000000000	0.08402000000000	0.00000000000000	0.00000000000000	0.00000000000000	0.00000000000000	0.00000000000000	0.00000000000000	0.00000000000000	29.13664600000000	0.00000000000000	0.00000000000000	0.00000000000000	0.00000000000000	
5.67164600000000	63.63146300000000	784.92611399999998	47.00684200000000	0.44990300000000	0.00000000000000	0.08405600000000	0.00000000000000	0.00000000000000	0.00000000000000	0.00000000000000	0.00000000000000	0.00000000000000	0.00000000000000	29.38295200000000	0.00000000000000	0.00000000000000	0.00000000000000	0.00000000000000	
5.67330800000000	62.88322800000000	787.18673600000000	47.30453400000000	0.44883700000000	0.00000000000000	0.08409200000000	0.00000000000000	0.00000000000000	0.00000000000000	0.00000000000000	0.00000000000000	0.00000000000000	0.00000000000000	29.62879300000000	0.00000000000000	0.00000000000000	0.00000000000000	0.00000000000000	
5.67497600000000	62.12963100000000	789.30153600000006	47.59978100000000	0.44776200000000	0.00000000000000	0.08413000000000	0.00000000000000	0.00000000000000	0.00000000000000	0.00000000000000	0.00000000000000	0.00000000000000	0.00000000000000	29.87341700000000	0.00000000000000	0.00000000000000	0.00000000000000	0.00000000000000	
5.67665000000000	61.37133900000000	791.27046499999994	47.89170100000000	0.44667800000000	0.00000000000000	0.08416900000000	0.00000000000000	0.00000000000000	0.00000000000000	0.00000000000000	0.00000000000000	0.00000000000000	0.00000000000000	30.11604300000000	0.00000000000000	0.00000000000000	0.00000000000000	0.00000000000000	
5.67831200000000	60.60898100000000	793.09361200000001	48.17937300000000	0.44558600000000	0.00000000000000	0.08420800000000	0.00000000000000	0.00000000000000	0.00000000000000	0.00000000000000	0.00000000000000	0.00000000000000	0.00000000000000	30.35585800000000	0.00000000000000	0.00000000000000	0.00000000000000	0.00000000000000	
5.67998300000000	59.84315400000000	794.77121299999999	48.46184700000000	0.44448500000000	0.00000000000000	0.08424900000000	0.00000000000000	0.00000000000000	0.00000000000000	0.00000000000000	0.00000000000000	0.00000000000000	0.00000000000000	30.59202900000000	0.00000000000000	0.00000000000000	0.00000000000000	0.00000000000000	
5.68164100000000	59.07442400000000	796.30364699999996	48.73814800000000	0.44337600000000	0.00000000000000	0.08429000000000	0.00000000000000	0.00000000000000	0.00000000000000	0.00000000000000	0.00000000000000	0.00000000000000	0.00000000000000	30.82370900000000	0.00000000000000	0.00000000000000	0.00000000000000	0.00000000000000	
5.68330800000000	58.30332400000000	797.69144700000004	49.00728700000000	0.44225800000000	0.00000000000000	0.08433100000000	0.00000000000000	0.00000000000000	0.00000000000000	0.00000000000000	0.00000000000000	0.00000000000000	0.00000000000000	31.05004100000000	0.00000000000000	0.00000000000000	0.00000000000000	0.00000000000000	
5.68497900000000	57.53036000000000	798.93530099999998	49.26826600000000	0.44113200000000	0.00000000000000	0.08437300000000	0.00000000000000	0.00000000000000	0.00000000000000	0.00000000000000	0.00000000000000	0.00000000000000	0.00000000000000	31.27016600000000	0.00000000000000	0.00000000000000	0.00000000000000	0.00000000000000	
5.68664300000000	56.75601200000000	800.03605300000004	49.52008800000000	0.43999900000000	0.00000000000000	0.08441500000000	0.00000000000000	0.00000000000000	0.00000000000000	0.00000000000000	0.00000000000000	0.00000000000000	0.00000000000000	31.48322500000000	0.00000000000000	0.00000000000000	0.00000000000000	0.00000000000000	
5.68831200000000	55.98073500000000	800.99470699999995	49.76175900000000	0.43885700000000	0.00000000000000	0.08445700000000	0.00000000000000	0.00000000000000	0.00000000000000	0.00000000000000	0.00000000000000	0.00000000000000	0.00000000000000	31.68837300000000	0.00000000000000	0.00000000000000	0.00000000000000	0.00000000000000	
5.68997700000000	55.20496300000000	801.81242999999995	49.99230100000000	0.43770700000000	0.00000000000000	0.08449900000000	0.00000000000000	0.00000000000000	0.00000000000000	0.00000000000000	0.00000000000000	0.00000000000000	0.00000000000000	31.88477500000000	0.00000000000000	0.00000000000000	0.00000000000000	0.00000000000000	
5.69165000000000	54.42910900000000	802.49054999999998	50.21075800000000	0.43655000000000	0.00000000000000	0.08454200000000	0.00000000000000	0.00000000000000	0.00000000000000	0.00000000000000	0.00000000000000	0.00000000000000	0.00000000000000	32.07162200000000	0.00000000000000	0.00000000000000	0.00000000000000	0.00000000000000	
5.69331500000000	53.65356800000000	803.03056000000004	50.41619800000000	0.43538500000000	0.00000000000000	0.08458300000000	0.00000000000000	0.00000000000000	0.00000000000000	0.00000000000000	0.00000000000000	0.00000000000000	0.00000000000000	32.24812800000000	0.00000000000000	0.00000000000000	0.00000000000000	0.00000000000000	
5.69497600000000	52.87872000000000	803.43411500000002	50.60772600000000	0.43421300000000	0.00000000000000	0.08462500000000	0.00000000000000	0.00000000000000	0.00000000000000	0.00000000000000	0.00000000000000	0.00000000000000	0.00000000000000	32.41353800000000	0.00000000000000	0.00000000000000	0.00000000000000	0.00000000000000	
5.69664100000000	52.10493100000000	803.70303500000000	50.78448600000000	0.43303300000000	0.00000000000000	0.08466600000000	0.00000000000000	0.00000000000000	0.00000000000000	0.00000000000000	0.00000000000000	0.00000000000000	0.00000000000000	32.56713600000000	0.00000000000000	0.00000000000000	0.00000000000000	0.00000000000000	
